<svg width="56" height="58" viewBox="0 0 56 58" fill="none" xmlns="http://www.w3.org/2000/svg">
<path d="M49.498 46.8601C52.3703 43.4043 54.3679 39.3076 55.322 34.9165C56.2761 30.5254 56.1586 25.969 54.9794 21.633C53.8001 17.2969 51.5939 13.3086 48.5473 10.0055C45.5007 6.70237 41.7034 4.18163 37.4765 2.65649C33.2497 1.13135 28.7177 0.646678 24.2639 1.24348C19.8102 1.84028 15.5656 3.50099 11.8894 6.08513C8.21323 8.66927 5.2135 12.1008 3.14399 16.0895C1.07448 20.0781 -0.00392519 24.5065 1.07353e-05 29.0001C0.00152108 35.5325 2.3035 41.8557 6.50201 46.8601L6.46201 46.8941C6.60201 47.0621 6.76201 47.2061 6.90601 47.3721C7.08601 47.5781 7.28001 47.7721 7.46601 47.9721C8.02601 48.5801 8.60201 49.1641 9.20601 49.7121C9.39001 49.8801 9.58001 50.0361 9.76601 50.1961C10.406 50.7481 11.064 51.2721 11.746 51.7601C11.834 51.8201 11.914 51.8981 12.002 51.9601V51.9361C16.6862 55.2325 22.2742 57.0016 28.002 57.0016C33.7298 57.0016 39.3178 55.2325 44.002 51.9361V51.9601C44.09 51.8981 44.168 51.8201 44.258 51.7601C44.938 51.2701 45.598 50.7481 46.238 50.1961C46.424 50.0361 46.614 49.8781 46.798 49.7121C47.402 49.1621 47.978 48.5801 48.538 47.9721C48.724 47.7721 48.916 47.5781 49.098 47.3721C49.24 47.2061 49.402 47.0621 49.542 46.8921L49.498 46.8601ZM28 13.0001C29.78 13.0001 31.5201 13.528 33.0001 14.5169C34.4802 15.5058 35.6337 16.9114 36.3149 18.556C36.9961 20.2005 37.1743 22.0101 36.8271 23.7559C36.4798 25.5018 35.6226 27.1054 34.364 28.3641C33.1053 29.6228 31.5017 30.4799 29.7558 30.8272C28.01 31.1745 26.2004 30.9962 24.5559 30.315C22.9113 29.6338 21.5057 28.4803 20.5168 27.0002C19.5279 25.5202 19 23.7802 19 22.0001C19 19.6132 19.9482 17.324 21.6361 15.6362C23.3239 13.9483 25.6131 13.0001 28 13.0001V13.0001ZM12.014 46.8601C12.0487 44.2341 13.1159 41.7272 14.9847 39.882C16.8535 38.0368 19.3737 37.0015 22 37.0001H34C36.6263 37.0015 39.1465 38.0368 41.0153 39.882C42.8841 41.7272 43.9513 44.2341 43.986 46.8601C39.5997 50.8128 33.9045 53.0003 28 53.0003C22.0955 53.0003 16.4003 50.8128 12.014 46.8601V46.8601Z" fill="white"/>
</svg>