<svg width="49" height="49" viewBox="0 0 49 49" fill="none" xmlns="http://www.w3.org/2000/svg">
<path d="M19.9062 3.0625V9.1875L16.8438 10.7188L12.25 6.125L6.125 12.25L10.7188 16.8438L9.1875 19.9062H3.0625V29.0938H9.1875L10.7188 32.1562L6.125 36.75L12.25 42.875L16.8438 38.2812L19.9062 39.8125V45.9375H29.0938V39.8125L32.1562 38.2812L36.75 42.875L42.875 36.75L38.2812 32.1562L39.8125 29.0938H45.9375V19.9062H39.8125L38.2812 16.8438L42.875 12.25L36.75 6.125L32.1562 10.7188L29.0938 9.1875V3.0625H19.9062Z" stroke="white" stroke-width="2" stroke-linecap="round" stroke-linejoin="round"/>
<path d="M24.5 30.625C27.8827 30.625 30.625 27.8827 30.625 24.5C30.625 21.1173 27.8827 18.375 24.5 18.375C21.1173 18.375 18.375 21.1173 18.375 24.5C18.375 27.8827 21.1173 30.625 24.5 30.625Z" stroke="white" stroke-width="2" stroke-linecap="round" stroke-linejoin="round"/>
</svg>
